<svg width="110" height="50" viewBox="0 0 110 50" fill="none" xmlns="http://www.w3.org/2000/svg">
<path d="M35.8548 0.725807C36.2476 1.3172 36.5843 2.12365 36.8648 3.14516C37.2015 4.1129 37.3698 5.13441 37.3698 6.20967C37.3698 8.30645 36.8929 9.81183 35.939 10.7258C35.0412 11.586 33.8068 12.0161 32.2357 12.0161H14.5608V21.129H32.9932C33.4421 21.7204 33.8068 22.5 34.0873 23.4677C34.424 24.4355 34.5923 25.457 34.5923 26.5323C34.5923 28.5753 34.1154 30.0538 33.1615 30.9677C32.2637 31.828 31.0293 32.2581 29.4582 32.2581H14.7291V49.2742C14.1119 49.4355 13.1299 49.5968 11.7833 49.7581C10.4927 49.9194 9.20217 50 7.91163 50C6.62108 50 5.47081 49.8925 4.46081 49.6774C3.50693 49.5161 2.69332 49.1936 2.01999 48.7097C1.34666 48.2258 0.841662 47.5538 0.504997 46.6936C0.168332 45.8333 0 44.7043 0 43.3065V8.22581C0 5.91398 0.701385 4.08602 2.10416 2.74193C3.50693 1.39785 5.41469 0.725807 7.82746 0.725807H35.8548Z" fill="black"/>
<path d="M59.4424 49.2742C58.8252 49.4355 57.8432 49.5968 56.4966 49.7581C55.206 49.9194 53.9155 50 52.6249 50C51.3344 50 50.1841 49.8925 49.1741 49.6774C48.2202 49.5161 47.4066 49.1936 46.7333 48.7097C46.06 48.2258 45.555 47.5538 45.2183 46.6936C44.8816 45.8333 44.7133 44.7043 44.7133 43.3065V0.725807C45.3305 0.618278 46.3125 0.48387 47.6591 0.322581C49.0058 0.107527 50.2963 0 51.5308 0C52.8213 0 53.9435 0.107527 54.8974 0.322581C55.9074 0.48387 56.7491 0.806449 57.4224 1.29032C58.0957 1.77419 58.6007 2.44624 58.9374 3.30645C59.2741 4.16667 59.4424 5.2957 59.4424 6.69355V49.2742Z" fill="black"/>
<path d="M68.0011 12.0161C67.6083 11.4247 67.2436 10.6183 66.9069 9.59677C66.5702 8.57527 66.4019 7.5 66.4019 6.37097C66.4019 4.27419 66.8788 2.76882 67.8327 1.85484C68.8427 0.940859 70.1333 0.48387 71.7044 0.48387H108.401C108.794 1.07527 109.158 1.88172 109.495 2.90322C109.832 3.92473 110 5 110 6.12903C110 8.22581 109.495 9.73118 108.485 10.6452C107.531 11.5591 106.269 12.0161 104.698 12.0161H95.3551V49.2742C94.7379 49.4355 93.7559 49.5968 92.4093 49.7581C91.1187 49.9194 89.8282 50 88.5376 50C87.2471 50 86.0968 49.8925 85.0868 49.6774C84.1329 49.5161 83.3193 49.1936 82.646 48.7097C81.9726 48.2258 81.4676 47.5538 81.131 46.6936C80.7943 45.8333 80.626 44.7043 80.626 43.3065V12.0161H68.0011Z" fill="black"/>
</svg>
